<svg id="contact_phone_FILL0_wght400_GRAD0_opsz48" xmlns="http://www.w3.org/2000/svg" width="48" height="36" viewBox="0 0 48 36">
  <path id="contact_phone_FILL0_wght400_GRAD0_opsz48-2" data-name="contact_phone_FILL0_wght400_GRAD0_opsz48" d="M3,42a2.878,2.878,0,0,1-2.1-.9A2.878,2.878,0,0,1,0,39V9A2.878,2.878,0,0,1,.9,6.9,2.878,2.878,0,0,1,3,6H45a2.878,2.878,0,0,1,2.1.9A2.878,2.878,0,0,1,48,9V39a3.076,3.076,0,0,1-3,3Zm26.55-3H45V9H3V39h.35a16.432,16.432,0,0,1,5.625-5.45,14.561,14.561,0,0,1,7.475-2,14.561,14.561,0,0,1,7.475,2A16.431,16.431,0,0,1,29.55,39ZM16.45,28a5.975,5.975,0,0,0,6-6,5.975,5.975,0,0,0-6-6,5.975,5.975,0,0,0-6,6,5.975,5.975,0,0,0,6,6ZM37.8,36.6l3.85-3.8L38.8,28.75H35.3a13.16,13.16,0,0,1-.625-2.325A14.836,14.836,0,0,1,34.5,24.05a14.369,14.369,0,0,1,.175-2.35,14.637,14.637,0,0,1,.625-2.35h3.5l2.85-4.05L37.8,11.5a15.431,15.431,0,0,0-4.275,5.55,16.828,16.828,0,0,0,0,14A15.431,15.431,0,0,0,37.8,36.6ZM7.15,39h18.6a12.965,12.965,0,0,0-4.225-3.275,11.547,11.547,0,0,0-10.15,0A12.965,12.965,0,0,0,7.15,39Zm9.3-14a3.023,3.023,0,0,1-2.125-5.15A3.023,3.023,0,0,1,18.6,24.125,2.87,2.87,0,0,1,16.45,25ZM24,24Z" transform="translate(0 -6)" fill="#f7a251"/>
</svg>
