<svg xmlns="http://www.w3.org/2000/svg" width="20" height="23.529" viewBox="0 0 20 23.529">
  <path id="wc_24dp_E8EAED_FILL0_wght400_GRAD0_opsz24" d="M161.765-856.471v-8.823H160v-6.471a2.266,2.266,0,0,1,.691-1.662,2.266,2.266,0,0,1,1.662-.691h3.529a2.266,2.266,0,0,1,1.662.691,2.266,2.266,0,0,1,.691,1.662v6.471h-1.765v8.823Zm2.353-18.823a2.266,2.266,0,0,1-1.662-.691,2.266,2.266,0,0,1-.691-1.662,2.266,2.266,0,0,1,.691-1.662,2.266,2.266,0,0,1,1.662-.691,2.266,2.266,0,0,1,1.662.691,2.266,2.266,0,0,1,.691,1.662,2.266,2.266,0,0,1-.691,1.662A2.266,2.266,0,0,1,164.118-875.294Zm8.824,18.823v-7.059h-3.529l3-9a2.085,2.085,0,0,1,.868-1.177,2.557,2.557,0,0,1,1.426-.412,2.557,2.557,0,0,1,1.426.412,2.085,2.085,0,0,1,.868,1.177l3,9h-3.529v7.059Zm1.765-18.823a2.266,2.266,0,0,1-1.662-.691,2.266,2.266,0,0,1-.691-1.662,2.266,2.266,0,0,1,.691-1.662,2.266,2.266,0,0,1,1.662-.691,2.266,2.266,0,0,1,1.662.691,2.266,2.266,0,0,1,.691,1.662,2.266,2.266,0,0,1-.691,1.662A2.266,2.266,0,0,1,174.706-875.294Z" transform="translate(-160 880)" fill="rgba(39,82,137,0.46)"/>
</svg>
