<svg xmlns="http://www.w3.org/2000/svg" xmlns:xlink="http://www.w3.org/1999/xlink" width="22.564" height="15.871" viewBox="0 0 22.564 15.871">
  <defs>
    <clipPath id="clip-path">
      <rect id="Rectángulo_261" data-name="Rectángulo 261" width="22.564" height="15.871" fill="#ff0"/>
    </clipPath>
  </defs>
  <g id="Grupo_278" data-name="Grupo 278" transform="translate(-3 19)">
    <g id="Grupo_274" data-name="Grupo 274" transform="translate(3 -19)" clip-path="url(#clip-path)">
      <path id="Trazado_83" data-name="Trazado 83" d="M0,3.794c.026-.06.052-.12.079-.18a.884.884,0,0,1,1.264-.4Q3.589,4.3,5.834,5.4l.258.124c.22-.252.442-.5.661-.757Q8.665,2.56,10.577.354a.882.882,0,0,1,1.411,0q2.174,2.5,4.342,5.013a.235.235,0,0,0,.344.07q2.21-1.09,4.429-2.16A1.676,1.676,0,0,1,21.6,3.1a.86.86,0,0,1,.933,1.091c-.294,1.029-.616,2.05-.927,3.075q-1.192,3.925-2.385,7.85a.911.911,0,0,1-1.011.756H4.348a.908.908,0,0,1-1-.746Q1.7,9.674.039,4.223A.477.477,0,0,0,0,4.147V3.794M2.323,5.652c.027.1.039.148.053.2Q3.6,9.888,4.826,13.931c.053.177.147.179.287.179q6.17,0,12.34,0a.26.26,0,0,0,.3-.224q1.208-4,2.427-8c.019-.064.031-.131.054-.229l-.294.14-3.165,1.54a.92.92,0,0,1-1.287-.263L11.607,2.6c-.1-.12-.21-.238-.321-.364-.052.056-.088.092-.121.13L7.065,7.1a.911.911,0,0,1-1.252.256c-.35-.17-.7-.342-1.048-.512L2.323,5.652" transform="translate(0 0)" fill="#ff0"/>
    </g>
  </g>
</svg>
